# xmcd
#
# Track frame offsets: 
#        150
#        22893
#        40385
#        56350
#        71110
#        82460
#        103880
#        119100
#        135380
#        156420
#        176890
#
# Disc length: 2656 seconds
#
# Revision: 2
# Processed by: cddbd v1.5.2PL0 Copyright (c) Steve Scherf et al.
# Submitted via: ExactAudioCopy v1.0b3
#
DISCID=a50a5e0b
DTITLE=Foley, Sue - Walk In The Sun
DYEAR=1996
DGENRE=Electric Blues
TTITLE0=Try To Understand
TTITLE1=Give It To Me
TTITLE2=Walk In The Sun
TTITLE3=The Snake
TTITLE4=Wayward Girl
TTITLE5=The Wind
TTITLE6=Lover's Call
TTITLE7=Better
TTITLE8=Train To Memphis
TTITLE9=Love Sick Child
TTITLE10=Long Distance Lover
EXTD=
EXTT0=
EXTT1=
EXTT2=
EXTT3=
EXTT4=
EXTT5=
EXTT6=
EXTT7=
EXTT8=
EXTT9=
EXTT10=
PLAYORDER=
